<svg xmlns="http://www.w3.org/2000/svg" xmlns:xlink="http://www.w3.org/1999/xlink" viewBox="0 0 1762.328 441.457">
  <defs>
    <style>
      .cls-1 {
        fill: url(#linear-gradient);
      }
    </style>
    <linearGradient id="linear-gradient" x1="1502.209" y1="107.609" x2="1762.328" y2="107.609" gradientUnits="userSpaceOnUse">
      <stop offset="0.074" stop-color="#3600ff"/>
      <stop offset="0.122" stop-color="#2e18ff"/>
      <stop offset="0.253" stop-color="#1a54ff"/>
      <stop offset="0.364" stop-color="#0c80ff"/>
      <stop offset="0.451" stop-color="#039bff"/>
      <stop offset="0.501" stop-color="#00a5ff"/>
      <stop offset="1" stop-color="#00d300"/>
    </linearGradient>
  </defs>
  <polygon id="logoHover" points="0 0, 0 441.457, 1762.328 441.457, 1762.328 0" fill="transparent"/>
  <g id="Layer_2" data-name="Layer 2">
    <g id="logo">
      <g id="trellix">
        <polygon points="1676.4 436.467 1421.735 110.672 1329.765 110.672 1457.041 273.497 1329.765 436.467 1421.735 436.467 1503.046 332.352 1584.43 436.467 1676.4 436.467"/>
        <path d="M1209.92,110.672h79.314V436.539H1209.92Z"/>
        <path d="M1075.114,0h79.314V436.539h-79.314Z"/>
        <path d="M937.02,0h79.315V436.539H937.02Z"/>
        <path d="M732.42,441.457q-46.113,0-84.849-22.748a167.743,167.743,0,0,1-83-145.1q0-46.113,22.75-84.847A167.645,167.645,0,0,1,648.8,127.58a164.01,164.01,0,0,1,83.619-22.441,161.312,161.312,0,0,1,74.7,17.83,169.2,169.2,0,0,1,58.411,49.187,166.5,166.5,0,0,1,31.049,69.476q6.758,32.6.614,61.485H643.882q4.295,21.53,16.908,36.89a78.071,78.071,0,0,0,31.357,23.057,104.989,104.989,0,0,0,40.273,7.686,123.033,123.033,0,0,0,45.805-8.914,105.717,105.717,0,0,0,37.813-24.9l70.093,19.061q-19.686,38.737-63.329,62.1Q779.139,441.466,732.42,441.457Zm86.693-199.209a86.738,86.738,0,0,0-16.294-33.2,85.541,85.541,0,0,0-30.127-24.288q-18.143-8.9-40.887-8.913t-41.195,8.913a84.78,84.78,0,0,0-30.434,24.288,86.581,86.581,0,0,0-16.294,33.2Z"/>
        <path d="M348,110.672h79.93v48.572q15.362-27.667,46.113-42.117t75.626-7.686v85.466q-30.132-10.448-58.41-4t-45.806,27.668q-17.523,21.215-17.523,51.955V436.539H348Z"/>
        <path d="M135.266,76.855H0V0H348V76.855H217.655V436.539H135.266Z"/>
      </g>
      <g id="color.slash">        <!-- BR        BL        TL      TR    -->
        <polygon class="cls-1" points="1594 215, 1502 215, 1670 0, 1762 0">
          <animate
            id="logoSlashAnim"
            begin="logoHover.mouseover"
            attributeName="points"
            dur="750ms"
            values="1594 215, 1502 215, 1670 0, 1762 0; 1421 437, 1328 437, 1670 0, 1762 0; 1421 437, 1328 437, 1328 437, 1421 437; 1762 0, 1670 0, 1670 0, 1762 0; 1594 215, 1502 215, 1670 0, 1762 0"
            calcMode="spline"
            keyTimes="0; .3; .7; .71; 1"
            keySplines=".66 .25 1 1; 0 0 1 1; 0 0 1 1; 0 0 .33 1;"
            restart="whenNotActive"
          />
        </polygon>
      </g>
    </g>
  </g>
</svg>
